<svg width="50" height="50" viewBox="0 0 50 50" xmlns="http://www.w3.org/2000/svg">
  <!-- Back page -->
  <rect x="13" y="4" width="26" height="33" rx="3" fill="#712258"/>
  <!-- Middle page -->
  <rect x="9" y="8" width="26" height="33" rx="3" fill="#985184"/>
  <!-- Front page -->
  <rect x="5" y="12" width="26" height="33" rx="3" fill="#FC868B"/>
  <!-- Text lines on front page -->
  <rect x="10" y="19" width="16" height="3" rx="1.5" fill="#fff" opacity="0.9"/>
  <rect x="10" y="25" width="13" height="2" rx="1" fill="#fff" opacity="0.6"/>
  <rect x="10" y="30" width="15" height="2" rx="1" fill="#fff" opacity="0.6"/>
  <rect x="10" y="35" width="10" height="2" rx="1" fill="#fff" opacity="0.4"/>
  <!-- Eye badge (bottom-right) -->
  <circle cx="38" cy="38" r="11" fill="#1ADD6B"/>
  <!-- Eye almond shape -->
  <path d="M31 38 c0 -4 3.5 -7 7 -7 c3.5 0 7 3 7 7 c0 4 -3.5 7 -7 7 c-3.5 0 -7 -3 -7 -7 Z" fill="none" stroke="#fff" stroke-width="1.8"/>
  <!-- Eye pupil -->
  <circle cx="38" cy="38" r="2.5" fill="#fff"/>
</svg>